<svg width="20" height="20" viewBox="0 0 20 20" fill="none" xmlns="http://www.w3.org/2000/svg">
<g clip-path="url(#clip0_1111_87)">
<path d="M9.99933 20.0004C10.6624 20.0004 11.2983 19.737 11.7671 19.2682C12.2359 18.7993 12.4993 18.1635 12.4993 17.5004H7.49933C7.49933 18.1635 7.76272 18.7993 8.23156 19.2682C8.7004 19.737 9.33629 20.0004 9.99933 20.0004ZM9.99933 2.39792L9.00308 2.59917C7.87303 2.82942 6.85724 3.44305 6.12764 4.3362C5.39805 5.22935 4.99945 6.34715 4.99933 7.50042C4.99933 8.28542 4.83183 10.2467 4.42558 12.1779C4.22558 13.1367 3.95558 14.1354 3.59683 15.0004H16.4018C16.0431 14.1354 15.7743 13.1379 15.5731 12.1779C15.1668 10.2467 14.9993 8.28542 14.9993 7.50042C14.9989 6.34737 14.6002 5.22986 13.8706 4.33697C13.141 3.44407 12.1254 2.83063 10.9956 2.60042L9.99933 2.39667V2.39792ZM17.7743 15.0004C18.0531 15.5592 18.3756 16.0017 18.7493 16.2504H1.24933C1.62308 16.0017 1.94558 15.5592 2.22433 15.0004C3.34933 12.7504 3.74933 8.60042 3.74933 7.50042C3.74933 4.47542 5.89933 1.95042 8.75558 1.37417C8.73813 1.20036 8.75731 1.02483 8.81187 0.858889C8.86643 0.692948 8.95517 0.540284 9.07236 0.410745C9.18955 0.281205 9.33258 0.177665 9.49224 0.106803C9.65191 0.0359405 9.82465 -0.000671387 9.99933 -0.000671387C10.174 -0.000671387 10.3468 0.0359405 10.5064 0.106803C10.6661 0.177665 10.8091 0.281205 10.9263 0.410745C11.0435 0.540284 11.1322 0.692948 11.1868 0.858889C11.2413 1.02483 11.2605 1.20036 11.2431 1.37417C12.6559 1.66155 13.9261 2.42837 14.8384 3.5448C15.7507 4.66122 16.2491 6.05864 16.2493 7.50042C16.2493 8.60042 16.6493 12.7504 17.7743 15.0004Z" fill="#1E2742"/>
</g>
<defs>
<clipPath id="clip0_1111_87">
<rect width="20" height="20" fill="white" transform="translate(-0.000732422 0.00177002)"/>
</clipPath>
</defs>
</svg>
